<?xml version="1.0" encoding="utf-8"?>
<!-- Generator: Adobe Illustrator 25.0.0, SVG Export Plug-In . SVG Version: 6.00 Build 0)  -->
<svg version="1.1" id="Layer_1" xmlns="http://www.w3.org/2000/svg" xmlns:xlink="http://www.w3.org/1999/xlink" x="0px" y="0px"
	 viewBox="0 0 400 400" style="enable-background:new 0 0 400 400;" xml:space="preserve">
<g>
	<path d="M310.8,121.05c26.11,12.66,52.01,25.75,77.98,38.69c3.46,1.72,4.97,4.38,4.92,8.24c-0.11,7.89-0.1,15.79-0.01,23.68
		c0.05,3.88-1.57,6.43-5.08,8.1c-6.04,2.87-11.93,6.1-18.01,8.87c-2.73,1.25-3.56,2.85-3.54,5.8c0.15,16.09,0.07,32.18,0.07,48.26
		c0,5.36,0.13,10.73-0.05,16.09c-0.17,4.96-2.81,7.72-6.9,7.68c-4.01-0.03-6.44-2.95-6.48-7.94c-0.05-5.66-0.2-11.33,0.06-16.98
		c0.14-3.12-0.91-4.76-3.72-6.11c-10.73-5.16-21.5-10.28-31.88-16.08c-3.38-1.89-5.54-1.77-8.72-0.18
		c-54.91,27.55-109.86,55.02-164.86,82.38c-3.35,1.67-4.74,3.45-4.7,7.35c0.22,20.85,0.12,41.71,0.09,62.56
		c-0.01,5.48-2.62,8.63-6.93,8.51c-3.96-0.1-6.41-3.25-6.48-8.52c-0.07-5.51-0.21-11.03,0.05-16.53c0.15-3.13-0.95-4.73-3.74-6.1
		c-19.62-9.66-39.15-19.49-58.71-29.26c-1.27-0.63-2.61-1.13-4.43-1.91c0,5.74,0.5,10.87-0.22,15.81c-0.33,2.25-2.71,5.06-4.84,5.92
		c-1.69,0.68-4.97-0.68-6.53-2.18c-1.34-1.28-1.69-4.05-1.71-6.17c-0.13-15.19-0.44-30.4,0.1-45.58c0.23-6.29-1.36-10.04-7.47-11.9
		c-4.63-1.41-6.29-4.99-6.15-9.71c0.16-5.21,0.52-10.48-0.07-15.63c-1.02-8.91,1.66-15.05,10.68-17.85
		c1.18-0.37,2.53-2.12,2.71-3.39c0.4-2.89,0.13-5.88,0.13-10.15c-5.79,5.19-10.31,1.9-14.96-0.45c-6.11-3.09-12.15-6.34-18.4-9.1
		c-4.91-2.17-6.71-5.46-6.67-10.79c0.2-24.28,0.23-48.56-0.01-72.84c-0.06-5.84,1.96-9.24,7.24-11.86
		c39.2-19.39,78.29-39.01,117.41-58.56c47.64-23.81,95.3-47.56,142.88-71.49c4.43-2.23,8.11-2.48,12.52,0
		c6.99,3.93,14.24,7.45,21.53,10.8c4.27,1.96,5.8,4.93,5.78,9.48c-0.11,25.17-0.11,50.35,0,75.52c0.02,4.25-1.41,7.67-5.39,8.78
		c-7.62,2.14-9.15,7.24-8.05,14.09c0.05,0.29,0.09,0.59,0.07,0.42C304.13,120.87,308.06,119.72,310.8,121.05z M284.4,87.92
		c-8.79,4.39-17.55,8.82-26.38,13.13c-2.35,1.15-5.27,3.88-7.29,0.09c-2.06-3.86,1.83-4.69,4.18-5.87
		c13.81-6.98,27.64-13.93,41.55-20.71c2.76-1.34,4-2.85,3.8-6.04c-0.3-4.74-0.08-9.51-0.08-15.16c-4.14,2.06-7.78,3.86-11.41,5.67
		c-1.86,0.93-3.73,1.85-5.58,2.81c-2.11,1.09-4.4,2-5.79-0.7c-1.53-2.96,0.74-4.24,3.01-5.36c5.47-2.7,10.87-5.54,16.4-8.11
		c2.43-1.13,3.61-2.48,3.44-5.36c-0.28-4.89-0.08-9.82-0.08-15.34c-1.55,0.63-2.76,1.02-3.88,1.58
		c-83.19,41.57-166.38,83.16-249.6,124.67c-2.61,1.3-3.82,2.74-3.66,5.76c0.26,4.85,0.07,9.72,0.07,15.14
		c2.17-0.96,3.66-1.55,5.09-2.26c13.84-6.91,27.68-13.82,41.5-20.77c2.35-1.18,4.9-2.62,6.4,0.71c1.34,2.99-1.22,4.11-3.43,5.21
		c-15.31,7.64-30.57,15.37-45.93,22.9c-2.62,1.28-3.87,2.68-3.71,5.72c0.26,4.86,0.07,9.75,0.07,15.4
		c6.91-3.42,13.14-6.49,19.36-9.59c4.53-2.25,9.04-4.55,13.57-6.8c2.25-1.12,4.93-2.95,6.56,0.26c1.77,3.45-1.42,4.59-3.81,5.79
		c-10.64,5.33-21.24,10.76-31.98,15.89c-2.87,1.37-3.97,3.03-3.75,6.13c0.24,3.39,0.05,6.8,0.05,11.02c1.87-0.81,3.17-1.3,4.41-1.91
		c83.03-41.5,166.05-83.03,249.11-124.47c2.61-1.3,3.88-2.63,3.62-5.67c-0.3-3.54-0.07-7.13-0.07-11.64
		C294.45,82.88,289.43,85.4,284.4,87.92z M360.05,160.36c-2.47-1.36-4.42-1.34-6.97-0.04c-18.17,9.24-36.44,18.29-54.68,27.4
		c-1.2,0.6-2.42,1.6-3.63,1.59c-1.4,0-3.51-0.56-3.98-1.53c-0.48-0.99,0.34-2.99,1.18-4.12c0.72-0.97,2.26-1.35,3.45-1.94
		c16.23-8.12,32.47-16.23,48.69-24.35c1.42-0.71,2.79-1.5,4.7-2.52c-6.08-3.07-11.43-5.99-17-8.42c-1.41-0.62-3.72-0.14-5.24,0.6
		c-22.94,11.33-45.82,22.78-68.71,34.21c-1.06,0.53-2.18,1.5-3.2,1.43c-1.43-0.11-3.51-0.66-3.99-1.67
		c-0.47-0.96,0.42-3.01,1.31-4.07c0.89-1.05,2.52-1.5,3.85-2.16c20.5-10.24,41-20.47,61.5-30.72c1.41-0.7,2.76-1.53,4.65-2.59
		c-4.82-2.44-8.92-4.87-13.31-6.57c-1.54-0.6-3.98,0.15-5.66,0.99c-38.51,19.15-76.96,38.4-115.43,57.62
		c-43.79,21.89-87.59,43.77-131.38,65.66c-1.44,0.72-2.85,1.52-4.93,2.63c4.96,2.48,9.29,4.91,13.85,6.78
		c1.28,0.53,3.38-0.22,4.82-0.94c32.64-16.24,65.22-32.59,97.87-48.81c2.63-1.31,6.23-4.77,8.35-0.17c1.94,4.23-2.87,4.83-5.37,6.08
		c-30.43,15.31-60.91,30.51-91.38,45.74c-1.54,0.77-3.06,1.6-5.29,2.76c6.45,3.22,12.06,6.18,17.84,8.76
		c1.14,0.51,3.1-0.22,4.43-0.88c11.22-5.51,22.35-11.17,33.57-16.67c1.36-0.67,3.12-0.99,4.6-0.78c0.76,0.11,2.05,2.03,1.82,2.6
		c-0.62,1.47-1.68,3.16-3.03,3.87c-9.11,4.74-18.34,9.23-27.52,13.82c-1.42,0.71-2.78,1.53-4.86,2.68
		c6.3,3.16,11.87,6.19,17.66,8.67c1.34,0.57,3.64-0.42,5.23-1.21c46.75-23.3,93.46-46.68,140.18-70.03
		c35.41-17.7,70.83-35.37,106.23-53.06c1.57-0.78,3.09-1.66,5.25-2.83C369.86,165.34,364.87,163.01,360.05,160.36z M281.92,14.74
		c-1.43-0.57-3.69,0.02-5.22,0.78c-46.34,23.06-92.63,46.21-138.93,69.35c-36.06,18.02-72.11,36.05-108.16,54.08
		c-1.45,0.73-2.89,1.49-5.16,2.66c5.18,2.58,9.68,5.1,14.43,7.01c1.26,0.51,3.38-0.57,4.89-1.32
		c58.99-29.43,117.95-58.9,176.92-88.37c23.43-11.71,46.85-23.43,70.27-35.14c1.32-0.66,2.61-1.36,4.59-2.39
		C290.47,18.84,286.32,16.49,281.92,14.74z M128.22,314.98c82.53-41.24,165.05-82.51,247.62-123.67c3.25-1.62,4.81-3.37,4.44-7.08
		c-0.33-3.23-0.07-6.51-0.07-10.61c-2.14,1.03-3.68,1.75-5.2,2.51c-82.24,41.09-164.45,82.22-246.76,123.18
		c-3.95,1.97-5.58,4.14-5.04,8.45c0.36,2.88,0.07,5.84,0.07,9.43C125.35,316.27,126.81,315.68,128.22,314.98z M65.37,239.57
		c71.86-35.92,143.7-71.89,215.65-107.62c4.61-2.29,6.57-4.82,5.78-9.73c-0.22-1.41-0.03-2.88-0.03-4.85
		c-2.09,0.99-3.68,1.71-5.24,2.49c-71.18,35.57-142.35,71.14-213.53,106.7c-8.97,4.48-8.97,4.48-7.84,15.55
		C62.22,241.11,63.8,240.36,65.37,239.57z M19.86,167.9c0,14.71,0.07,29.43-0.06,44.14c-0.02,2.78,0.88,4.33,3.4,5.45
		c4.19,1.86,8.24,4.02,12.8,6.28c0.15-1.4,0.36-2.47,0.36-3.54c0.02-20.51-0.05-41.02,0.09-61.53c0.02-2.83-0.94-4.27-3.42-5.37
		c-4.18-1.85-8.22-3.99-13.16-6.42C19.86,154.56,19.86,161.23,19.86,167.9z M46.49,280.06c0.08,1.19,1.06,2.86,2.1,3.38
		c22.03,11.13,44.13,22.12,66.23,33.13c0.36,0.18,0.83,0.13,1.87,0.28c0-4.54,0.11-8.93-0.09-13.3c-0.04-0.88-1.11-2.07-2.01-2.52
		c-22.06-11.09-44.16-22.1-66.27-33.1c-0.36-0.18-0.84-0.12-1.93-0.24C46.39,272.05,46.22,276.07,46.49,280.06z M99.92,325.74
		c0.01,5.35-1.77,11.75,0.57,15.77c2.27,3.91,8.71,5.45,13.38,7.92c3.91,2.06,7.91,3.95,12.35,6.16c0-8.35,0-16.13,0-24.23
		c-10.51,5.52-16.9-4.99-26.09-6.52C100.05,325.16,99.92,325.45,99.92,325.74z M59.9,320.4c0.04,1.04,1.05,2.47,2,2.97
		c7.88,4.09,15.85,8.01,24.54,12.35c0-6,0.06-11.4-0.07-16.79c-0.02-0.8-0.79-1.93-1.53-2.3c-8.03-4.13-16.12-8.14-25.04-12.61
		C59.81,310.06,59.69,315.24,59.9,320.4z M353.44,242.2c0-8.53,0-16.32,0-24.85c-8.29,4.12-16.21,8.06-24.94,12.4
		C337.1,234.05,345.02,238,353.44,242.2z"/>
	<path d="M162.85,150.01c1.36,0.79,2.07,1.47,2.87,1.59c0.63,0.1,1.39-0.43,2.05-0.76c11.44-5.7,22.87-11.41,34.3-17.13
		c0.66-0.33,1.49-0.64,1.83-1.2c0.36-0.59,0.55-1.68,0.23-2.18c-0.31-0.49-1.34-0.61-2.08-0.72c-0.34-0.05-0.75,0.3-1.12,0.49
		c-11.66,5.81-23.33,11.6-34.97,17.45C165.02,148.01,164.27,148.86,162.85,150.01z"/>
	<path d="M247.28,92.06c-0.97,0.44-1.66,0.73-2.32,1.06c-11.36,5.71-22.72,11.43-34.08,17.15c-0.52,0.26-1.23,0.43-1.49,0.86
		c-0.41,0.67-0.92,1.79-0.64,2.25c0.34,0.55,1.47,0.71,2.28,0.81c0.42,0.05,0.9-0.38,1.34-0.6c11.53-5.74,23.06-11.48,34.59-17.22
		c0.52-0.26,1.21-0.44,1.47-0.87c0.38-0.64,0.77-1.58,0.56-2.19C248.81,92.74,247.84,92.43,247.28,92.06z"/>
	<path d="M195.52,118.05c-0.94,0.38-1.65,0.6-2.3,0.93c-6.67,3.33-13.33,6.68-20.01,10.01c-1.34,0.67-2.74,1.45-1.77,3.16
		c0.89,1.56,2.28,0.78,3.5,0.17c6.67-3.33,13.35-6.65,20.02-9.99c0.59-0.29,1.27-0.58,1.64-1.07c0.34-0.46,0.56-1.29,0.38-1.77
		C196.75,118.91,196.03,118.52,195.52,118.05z"/>
	<path d="M215.71,123.57c0.5,1.85,1.54,2.42,2.91,1.76c4.92-2.38,9.82-4.81,14.64-7.39c0.57-0.31,0.6-1.62,0.89-2.47
		c-0.85-0.23-1.9-0.91-2.51-0.63c-4.88,2.27-9.69,4.7-14.47,7.16C216.52,122.34,216.11,123.13,215.71,123.57z"/>
	<path d="M222.76,179.98c1.02,0.59,1.68,1.23,2.41,1.33c0.65,0.09,1.43-0.32,2.09-0.64c9.22-4.6,18.42-9.24,27.64-13.85
		c1.38-0.69,2.68-1.49,1.36-3.14c-0.38-0.48-1.76-0.66-2.38-0.36c-9.78,4.77-19.52,9.62-29.24,14.52
		C224,178.17,223.61,178.99,222.76,179.98z"/>
	<path d="M193.46,194.28c0.31,1.84,1.29,2.56,2.69,1.88c5-2.4,9.97-4.89,14.87-7.49c0.53-0.28,1.02-1.83,0.74-2.19
		c-0.46-0.59-1.78-1.19-2.34-0.93c-5.03,2.35-9.98,4.86-14.91,7.4C194.01,193.21,193.74,193.92,193.46,194.28z"/>
	<path d="M232.84,159.07c-0.72,0.24-1.14,0.33-1.5,0.51c-4.67,2.32-9.38,4.58-13.97,7.06c-0.71,0.38-0.87,1.77-1.28,2.7
		c1.01,0.17,2.22,0.79,2.98,0.44c4.66-2.15,9.25-4.47,13.78-6.87c0.69-0.37,1.25-1.45,1.35-2.27
		C234.26,160.15,233.29,159.55,232.84,159.07z"/>
</g>
</svg>
