<?xml version="1.0" encoding="utf-8"?>
<!-- Generator: Adobe Illustrator 25.0.0, SVG Export Plug-In . SVG Version: 6.00 Build 0)  -->
<svg version="1.1" id="Layer_1" xmlns="http://www.w3.org/2000/svg" xmlns:xlink="http://www.w3.org/1999/xlink" x="0px" y="0px"
	 viewBox="0 0 400 400" style="enable-background:new 0 0 400 400;" xml:space="preserve">
<g>
	<path d="M49.73,216.93c-7.94,2.16-15.65,4.26-23.35,6.33c-6.63,1.78-9.63,0.58-9.63-4.13c-0.05-23.35-0.05-46.73,0-70.09
		c0.02-4.55,2.93-7.09,9.41-8.34c7.71-1.5,15.44-2.88,23.81-4.45c0-1.9,0-3.61,0-5.31c0.05-10.04,10.46-19.33,24.55-21.9
		c13.59-2.46,24.93,3.05,25.45,12.37c0.1,1.72,0.02,3.46,0.02,5.38c66.71-12.39,132.99-24.7,199.98-37.15c0-1.32-0.02-2.65,0-3.98
		c0.07-7.19,10.57-14.46,24.5-16.94c13.24-2.35,24.56,0.92,25.43,7.33c0.18,1.35,0.03,2.78,0.03,4.43
		c7.66-1.43,14.9-2.78,22.15-4.11c8.71-1.62,11.16-0.98,11.16,2.91c0.02,14.14,0.02,28.28,0,42.43c0,3.61-2.65,5.48-10.69,7.68
		c-7.28,1.98-14.56,3.95-22.18,6.03c0,5.26,0,10.43,0,15.87c1.52-0.45,3.08-0.92,4.66-1.38c11.31-3.35,22.62-6.69,33.92-10.04
		c8.33-2.46,11.02-2.1,11.04,1.47c0.02,4.15,0.02,8.29,0,12.46c-0.02,3.16-3.31,5.68-10.66,8.16c-1.77,0.6-3.55,1.18-6.06,2.02
		c0,0.9,0,1.67,0,2.43c0,12.41,0,24.81,0,37.22c0,3.85-2.95,6.38-11.41,9.83c-9.08,3.7-18.15,7.38-27.23,11.06
		c-8.29,3.36-11.37,3.15-11.37-0.85c-0.02-13.49,0-26.98,0-40.48c0-0.77,0-1.55,0-2.43c-88.95,29.61-177.39,59.04-266.46,88.68
		c0,1.25,0,2.43,0,3.6c0,18.64,0,37.25,0,55.89c0,6.43-2.85,9.54-12.14,13.32c-8.93,3.63-17.85,7.26-26.78,10.87
		c-8.08,3.26-11.09,2.38-11.11-3.33c-0.02-19.83-0.02-39.69-0.02-59.54c0-1.27,0-2.53,0-4.33c-2.46,0.82-4.61,1.57-6.78,2.25
		c-6.53,2.07-9.91,0.75-9.94-3.93c-0.05-7.36-0.05-14.74,0-22.13c0.03-5,2.88-7.91,9.86-10.01c11.61-3.48,23.21-6.88,34.81-10.33
		c1.6-0.48,3.21-0.95,5.05-1.5C49.73,232.44,49.73,224.94,49.73,216.93z M366.43,85.07c-111.21,22.03-221.94,43.98-332.8,65.96
		c0,7.89,0,15.57,0,23.26c111.1-24.71,221.82-49.34,332.8-74.02C366.43,95.18,366.43,90.22,366.43,85.07z M366.43,108.14
		c-111.28,26.15-222.01,52.14-332.77,78.17c0,7.91,0,15.59,0,23.21c111.13-28.79,221.86-57.47,332.77-86.2
		C366.43,118.18,366.43,113.22,366.43,108.14z M299.75,149.27c-66.8,18.14-133.16,36.15-199.53,54.19c0,7.31,0,14.41,0,21.63
		c66.6-19.7,132.96-39.32,199.53-59.02C299.75,160.44,299.75,154.93,299.75,149.27z M16.94,273.54
		c122.3-39.15,244.07-78.14,366.26-117.26c0-2.03,0.02-3.95-0.02-5.86c0-0.45-0.2-0.83-0.32-1.28
		c-122.09,37.64-243.94,75.21-365.93,112.81C16.94,265.93,16.94,269.63,16.94,273.54z M49.71,332.41c0-19.27,0-38.27,0-57.29
		c-5.53,1.85-10.77,3.6-16.14,5.38c0,19.53,0,38.85,0,58.27C39.04,336.61,44.2,334.57,49.71,332.41z M366.36,207.79
		c0-12.84,0-25.46,0-38.09c-5.6,1.87-10.86,3.61-16.1,5.36c0,13.11,0,26.05,0,39.07C355.71,211.99,360.87,209.96,366.36,207.79z
		 M66.98,234.74c5.78-1.7,10.94-3.23,15.82-4.68c0-7.56,0-14.74,0-21.87c-5.53,1.5-10.64,2.9-15.82,4.3
		C66.98,220.06,66.98,227.41,66.98,234.74z M332.92,156.28c0-5.4,0-10.67,0-16.07c-5.41,1.47-10.53,2.86-15.9,4.31
		c0,5.53,0,10.94,0,16.45C322.42,159.4,327.53,157.88,332.92,156.28z M83.26,129.94c-0.48-3.73,1.82-8.13-4.1-9.58
		c-3.01-0.75-6.34-0.03-9.18,1.97c-5.18,3.7-2.71,7.01-3.13,10.64C72.51,131.92,77.51,131,83.26,129.94z M316.7,86.47
		c5.73-1.07,10.96-2.03,16.5-3.06c-0.47-2.65,1.97-6.11-4.25-6.58c-2.28-0.18-6.41,0.65-8.64,1.68
		C314.61,81.22,317.27,83.72,316.7,86.47z"/>
</g>
</svg>
