<?xml version="1.0" encoding="utf-8"?>
<!-- Generator: Adobe Illustrator 25.0.0, SVG Export Plug-In . SVG Version: 6.00 Build 0)  -->
<svg version="1.1" id="Layer_1" xmlns="http://www.w3.org/2000/svg" xmlns:xlink="http://www.w3.org/1999/xlink" x="0px" y="0px"
	 viewBox="0 0 400 400" style="enable-background:new 0 0 400 400;" xml:space="preserve">
<path d="M99.7,120.87c-0.03,0.16,0.02-0.13,0.07-0.42c1.1-6.85-0.43-11.95-8.05-14.09c-3.98-1.12-5.41-4.54-5.39-8.78
	c0.1-25.17,0.11-50.35,0-75.52c-0.02-4.55,1.51-7.52,5.78-9.48c7.3-3.35,14.54-6.87,21.53-10.8c4.41-2.48,8.09-2.23,12.52,0
	c47.58,23.92,95.24,47.68,142.88,71.49c39.12,19.55,78.21,39.18,117.41,58.56c5.28,2.61,7.3,6.02,7.24,11.86
	c-0.24,24.28-0.21,48.56-0.01,72.84c0.04,5.33-1.76,8.63-6.67,10.79c-6.26,2.76-12.29,6.02-18.4,9.1
	c-4.65,2.35-9.17,5.64-14.96,0.45c0,4.27-0.28,7.25,0.13,10.15c0.18,1.27,1.53,3.02,2.71,3.39c9.01,2.8,11.7,8.94,10.68,17.85
	c-0.59,5.15-0.23,10.42-0.07,15.63c0.14,4.72-1.52,8.3-6.15,9.71c-6.12,1.86-7.7,5.61-7.47,11.9c0.54,15.17,0.24,30.38,0.1,45.58
	c-0.02,2.12-0.37,4.89-1.71,6.17c-1.56,1.5-4.84,2.85-6.53,2.18c-2.13-0.85-4.51-3.67-4.84-5.92c-0.72-4.94-0.22-10.07-0.22-15.81
	c-1.82,0.78-3.16,1.27-4.43,1.91c-19.57,9.76-39.1,19.6-58.71,29.26c-2.79,1.37-3.89,2.98-3.74,6.1c0.26,5.5,0.13,11.02,0.05,16.53
	c-0.07,5.27-2.52,8.42-6.48,8.52c-4.31,0.11-6.92-3.03-6.93-8.51c-0.02-20.85-0.12-41.71,0.09-62.56c0.04-3.9-1.35-5.68-4.7-7.35
	c-55-27.36-109.95-54.83-164.86-82.38c-3.18-1.6-5.34-1.71-8.72,0.18c-10.38,5.8-21.16,10.91-31.88,16.08
	c-2.81,1.35-3.86,3-3.72,6.11c0.26,5.65,0.11,11.32,0.06,16.98c-0.04,4.98-2.47,7.91-6.48,7.94c-4.09,0.03-6.73-2.73-6.9-7.68
	c-0.18-5.36-0.05-10.72-0.05-16.09c0-16.09-0.08-32.18,0.07-48.26c0.03-2.95-0.8-4.56-3.54-5.8c-6.09-2.77-11.97-6-18.01-8.87
	c-3.51-1.67-5.13-4.22-5.08-8.1c0.09-7.89,0.1-15.79-0.01-23.68c-0.05-3.86,1.46-6.52,4.92-8.24
	c25.97-12.94,51.87-26.03,77.98-38.69C91.94,119.72,95.87,120.87,99.7,120.87z M99.81,80.01c0,4.51,0.23,8.1-0.07,11.64
	c-0.26,3.04,1.01,4.37,3.62,5.67c83.06,41.44,166.08,82.96,249.11,124.47c1.23,0.62,2.53,1.1,4.41,1.91c0-4.22-0.18-7.64,0.05-11.02
	c0.22-3.1-0.88-4.76-3.75-6.13c-10.74-5.13-21.34-10.55-31.98-15.89c-2.39-1.2-5.57-2.34-3.81-5.79c1.64-3.2,4.32-1.37,6.56-0.26
	c4.53,2.25,9.04,4.55,13.57,6.8c6.22,3.09,12.44,6.16,19.36,9.59c0-5.65-0.19-10.53,0.07-15.4c0.16-3.04-1.09-4.43-3.71-5.72
	c-15.36-7.53-30.62-15.26-45.93-22.9c-2.2-1.1-4.77-2.22-3.43-5.21c1.5-3.34,4.05-1.9,6.4-0.71c13.82,6.95,27.66,13.86,41.5,20.77
	c1.43,0.71,2.92,1.3,5.09,2.26c0-5.43-0.19-10.3,0.07-15.14c0.16-3.02-1.05-4.45-3.66-5.76c-83.22-41.51-166.4-83.1-249.6-124.67
	c-1.12-0.56-2.33-0.95-3.88-1.58c0,5.53,0.2,10.45-0.08,15.34c-0.16,2.88,1.01,4.22,3.44,5.36c5.53,2.57,10.93,5.41,16.4,8.11
	c2.27,1.12,4.54,2.4,3.01,5.36c-1.4,2.7-3.68,1.79-5.79,0.7c-1.85-0.96-3.72-1.88-5.58-2.81c-3.63-1.81-7.27-3.61-11.41-5.67
	c0,5.65,0.22,10.42-0.08,15.16c-0.2,3.18,1.04,4.69,3.8,6.04c13.91,6.78,27.74,13.73,41.55,20.71c2.35,1.19,6.24,2.02,4.18,5.87
	c-2.02,3.79-4.94,1.06-7.29-0.09c-8.83-4.31-17.59-8.74-26.38-13.13C110.57,85.4,105.55,82.88,99.81,80.01z M24.47,168.17
	c2.16,1.17,3.68,2.04,5.25,2.83c35.41,17.69,70.83,35.37,106.23,53.06c46.72,23.35,93.43,46.73,140.18,70.03
	c1.6,0.8,3.89,1.78,5.23,1.21c5.8-2.48,11.36-5.51,17.66-8.67c-2.08-1.15-3.44-1.97-4.86-2.68c-9.18-4.59-18.42-9.09-27.52-13.82
	c-1.35-0.7-2.41-2.39-3.03-3.87c-0.24-0.57,1.06-2.49,1.82-2.6c1.48-0.21,3.24,0.11,4.6,0.78c11.22,5.5,22.36,11.16,33.57,16.67
	c1.34,0.66,3.3,1.38,4.43,0.88c5.79-2.57,11.4-5.54,17.84-8.76c-2.23-1.17-3.75-1.99-5.29-2.76
	c-30.47-15.23-60.96-30.42-91.38-45.74c-2.49-1.25-7.31-1.85-5.37-6.08c2.12-4.61,5.72-1.14,8.35,0.17
	c32.65,16.22,65.23,32.57,97.87,48.81c1.45,0.72,3.55,1.47,4.82,0.94c4.56-1.88,8.89-4.3,13.85-6.78c-2.08-1.11-3.49-1.91-4.93-2.63
	c-43.79-21.89-87.59-43.77-131.38-65.66c-38.47-19.22-76.92-38.47-115.43-57.62c-1.68-0.84-4.12-1.59-5.66-0.99
	c-4.39,1.7-8.49,4.13-13.31,6.57c1.89,1.06,3.24,1.89,4.65,2.59c20.49,10.25,41,20.48,61.5,30.72c1.33,0.66,2.96,1.11,3.85,2.16
	c0.9,1.06,1.78,3.11,1.31,4.07c-0.49,1-2.56,1.56-3.99,1.67c-1.03,0.08-2.14-0.9-3.2-1.43c-22.89-11.42-45.77-22.88-68.71-34.21
	c-1.52-0.75-3.83-1.22-5.24-0.6c-5.56,2.43-10.91,5.35-17,8.42c1.9,1.02,3.28,1.81,4.7,2.52c16.23,8.12,32.46,16.23,48.69,24.35
	c1.2,0.6,2.73,0.98,3.45,1.94c0.84,1.12,1.66,3.13,1.18,4.12c-0.47,0.97-2.59,1.52-3.98,1.53c-1.21,0-2.43-1-3.63-1.59
	c-18.24-9.11-36.51-18.16-54.68-27.4c-2.56-1.3-4.5-1.32-6.97,0.04C35.13,163.01,30.14,165.34,24.47,168.17z M104.45,21.38
	c1.98,1.03,3.27,1.73,4.59,2.39c23.42,11.72,46.84,23.43,70.27,35.14c58.97,29.47,117.93,58.95,176.92,88.37
	c1.52,0.76,3.64,1.83,4.89,1.32c4.74-1.92,9.24-4.43,14.43-7.01c-2.27-1.17-3.71-1.93-5.16-2.66
	c-36.05-18.03-72.1-36.06-108.16-54.08c-46.3-23.14-92.6-46.28-138.93-69.35c-1.53-0.76-3.79-1.35-5.22-0.78
	C113.68,16.49,109.53,18.84,104.45,21.38z M276.71,317.2c0-3.58-0.3-6.55,0.07-9.43c0.55-4.31-1.08-6.48-5.04-8.45
	c-82.3-40.96-164.52-82.09-246.76-123.18c-1.52-0.76-3.06-1.48-5.2-2.51c0,4.1,0.26,7.38-0.07,10.61c-0.38,3.71,1.19,5.47,4.44,7.08
	c82.57,41.16,165.09,82.43,247.62,123.67C273.19,315.68,274.65,316.27,276.71,317.2z M339.83,242.11
	c1.13-11.07,1.13-11.07-7.84-15.55c-71.18-35.57-142.35-71.14-213.53-106.7c-1.56-0.78-3.15-1.5-5.24-2.49
	c0,1.97,0.19,3.44-0.03,4.85c-0.78,4.91,1.18,7.44,5.78,9.73c71.96,35.73,143.79,71.71,215.65,107.62
	C336.2,240.36,337.78,241.11,339.83,242.11z M380.14,146.91c-4.94,2.43-8.98,4.58-13.16,6.42c-2.48,1.1-3.44,2.53-3.42,5.37
	c0.13,20.51,0.07,41.02,0.09,61.53c0,1.07,0.21,2.15,0.36,3.54c4.56-2.26,8.61-4.42,12.8-6.28c2.52-1.12,3.42-2.67,3.4-5.45
	c-0.13-14.71-0.06-29.43-0.06-44.14C380.14,161.23,380.14,154.56,380.14,146.91z M353.61,267.68c-1.08,0.13-1.57,0.06-1.93,0.24
	c-22.1,11-44.21,22.01-66.27,33.1c-0.9,0.45-1.97,1.63-2.01,2.52c-0.21,4.37-0.09,8.76-0.09,13.3c1.03-0.14,1.51-0.1,1.87-0.28
	c22.1-11,44.2-22,66.23-33.13c1.04-0.52,2.02-2.19,2.1-3.38C353.78,276.07,353.61,272.05,353.61,267.68z M299.87,324.83
	c-9.19,1.52-15.58,12.04-26.09,6.52c0,8.1,0,15.88,0,24.23c4.44-2.21,8.44-4.1,12.35-6.16c4.67-2.46,11.11-4,13.38-7.92
	c2.33-4.01,0.56-10.41,0.57-15.77C300.08,325.45,299.95,325.16,299.87,324.83z M340.19,304.02c-8.92,4.46-17.01,8.48-25.04,12.61
	c-0.73,0.38-1.51,1.51-1.53,2.3c-0.13,5.39-0.07,10.79-0.07,16.79c8.69-4.34,16.66-8.26,24.54-12.35c0.96-0.5,1.96-1.93,2-2.97
	C340.31,315.24,340.19,310.06,340.19,304.02z M71.51,229.76c-8.74-4.35-16.65-8.28-24.94-12.4c0,8.53,0,16.32,0,24.85
	C54.98,238,62.9,234.05,71.51,229.76z"/>
<path d="M237.15,150.01c-1.36,0.79-2.07,1.47-2.87,1.59c-0.63,0.1-1.39-0.43-2.05-0.76c-11.44-5.7-22.87-11.41-34.3-17.13
	c-0.66-0.33-1.49-0.64-1.83-1.2c-0.36-0.59-0.55-1.68-0.23-2.18c0.31-0.49,1.34-0.61,2.08-0.72c0.34-0.05,0.75,0.3,1.12,0.49
	c11.66,5.81,23.33,11.6,34.97,17.45C234.98,148.01,235.73,148.86,237.15,150.01z"/>
<path d="M152.72,92.06c0.97,0.44,1.66,0.73,2.32,1.06c11.36,5.71,22.72,11.43,34.08,17.15c0.52,0.26,1.23,0.43,1.49,0.86
	c0.41,0.67,0.92,1.79,0.64,2.25c-0.34,0.55-1.47,0.71-2.28,0.81c-0.42,0.05-0.9-0.38-1.34-0.6c-11.53-5.74-23.06-11.48-34.59-17.22
	c-0.52-0.26-1.21-0.44-1.47-0.87c-0.38-0.64-0.77-1.58-0.56-2.19C151.19,92.74,152.16,92.43,152.72,92.06z"/>
<path d="M204.48,118.05c0.94,0.38,1.65,0.6,2.3,0.93c6.67,3.33,13.33,6.68,20.01,10.01c1.34,0.67,2.74,1.45,1.77,3.16
	c-0.89,1.56-2.28,0.78-3.5,0.17c-6.67-3.33-13.35-6.65-20.02-9.99c-0.59-0.29-1.27-0.58-1.64-1.07c-0.34-0.46-0.56-1.29-0.38-1.77
	C203.25,118.91,203.97,118.52,204.48,118.05z"/>
<path d="M184.29,123.57c-0.5,1.85-1.54,2.42-2.91,1.76c-4.92-2.38-9.82-4.81-14.64-7.39c-0.57-0.31-0.6-1.62-0.89-2.47
	c0.85-0.23,1.9-0.91,2.51-0.63c4.88,2.27,9.69,4.7,14.47,7.16C183.48,122.34,183.89,123.13,184.29,123.57z"/>
<path d="M177.24,179.98c-1.02,0.59-1.68,1.23-2.41,1.33c-0.65,0.09-1.43-0.32-2.09-0.64c-9.22-4.6-18.42-9.24-27.64-13.85
	c-1.38-0.69-2.68-1.49-1.36-3.14c0.38-0.48,1.76-0.66,2.38-0.36c9.78,4.77,19.52,9.62,29.24,14.52
	C176,178.17,176.39,178.99,177.24,179.98z"/>
<path d="M206.54,194.28c-0.31,1.84-1.29,2.56-2.69,1.88c-5-2.4-9.97-4.89-14.87-7.49c-0.53-0.28-1.02-1.83-0.74-2.19
	c0.46-0.59,1.78-1.19,2.34-0.93c5.03,2.35,9.98,4.86,14.91,7.4C205.99,193.21,206.26,193.92,206.54,194.28z"/>
<path d="M167.16,159.07c0.72,0.24,1.14,0.33,1.5,0.51c4.67,2.32,9.38,4.58,13.97,7.06c0.71,0.38,0.87,1.77,1.28,2.7
	c-1.01,0.17-2.22,0.79-2.98,0.44c-4.66-2.15-9.25-4.47-13.78-6.87c-0.69-0.37-1.25-1.45-1.35-2.27
	C165.74,160.15,166.71,159.55,167.16,159.07z"/>
</svg>
