<?xml version="1.0" encoding="utf-8"?>
<!-- Generator: Adobe Illustrator 25.0.0, SVG Export Plug-In . SVG Version: 6.00 Build 0)  -->
<svg version="1.1" id="Layer_1" xmlns="http://www.w3.org/2000/svg" xmlns:xlink="http://www.w3.org/1999/xlink" x="0px" y="0px"
	 viewBox="0 0 400 400" style="enable-background:new 0 0 400 400;" xml:space="preserve">
<path d="M192.35,132.9c-5.7,0-10.75-0.21-15.76,0.15c-1.2,0.09-2.75,1.87-3.32,3.21c-5.85,13.87-12.12,27.55-21.92,39.13
	c-3.8,4.48-8.22,8.71-13.1,11.94c-11.79,7.81-26.21,6.02-36.42-3.74c-9.18-8.78-13.63-20.04-16.65-31.98
	c-0.7-2.78-1.93-4.13-4.63-5.08c-12.74-4.49-20.58-15.59-20.93-29.21c-0.51-19.9-4.85-39.17-9.67-58.35
	c-0.61-2.44-2.27-4.74-3.85-6.79c-2.84-3.69-2.97-8.18,0.67-11.16C59.79,30.38,72.93,19.89,86.13,9.48
	c3.15-2.49,6.71-2.27,9.88,0.26c12.92,10.28,25.85,20.56,38.66,30.97c3.89,3.17,3.92,7.63,0.97,11.46
	c-1.67,2.16-3.37,4.61-4.03,7.19c-4.88,19.02-8.84,38.19-9.49,57.92c-0.48,14.69-8.2,24.35-21.83,29.93
	c1.92,8.37,4.73,16.29,10.27,22.92c6.74,8.06,15.41,8.44,23.32,1.19c8.5-7.78,13.71-17.83,19.06-27.8
	c6.1-11.38,8.83-23.19,8.37-36.3c-0.77-21.7-0.14-43.44-0.27-65.16c-0.03-4.73,1.45-8.15,5.41-10.95
	c7.89-5.58,15.57-11.46,23.16-17.45c1.37-1.08,2.41-3.23,2.64-5c0.66-5.25,3.41-8.55,7.85-8.65c4.57-0.09,7.49,3.32,8.16,8.78
	c0.22,1.76,1.35,3.86,2.73,4.96c7.59,5.98,15.3,11.83,23.16,17.45c3.78,2.7,5.32,5.98,5.3,10.56c-0.11,26.04-0.1,52.08,0.02,78.11
	c0.01,2.74,0.54,5.64,1.54,8.2c5.92,15.14,12.55,29.94,24.15,41.77c9.52,9.71,19.79,8.85,26.94-2.69
	c3.69-5.95,5.95-12.78,9.01-19.54c-2.4-1.07-3.9-1.63-5.29-2.38c-11.13-6.03-17.09-15.33-17.45-28.05
	c-0.56-19.89-4.7-39.19-9.6-58.35c-0.59-2.31-2.12-4.52-3.66-6.4c-3.14-3.83-3.34-8.35,0.48-11.47
	c13.02-10.64,26.15-21.13,39.36-31.53c3.15-2.48,6.71-2.16,9.88,0.36c12.8,10.2,25.61,20.38,38.32,30.68
	c4.25,3.44,4.29,7.96,0.89,12.1c-1.54,1.88-2.93,4.16-3.52,6.48c-4.84,19.17-9.08,38.45-9.64,58.35
	c-0.39,13.86-8.24,24.7-21.42,29.3c-2.48,0.87-3.45,2.17-4.05,4.55c-2.96,11.8-7.26,22.97-16.17,31.77
	c-11.17,11.02-26.67,12.17-39.36,2.9c-8.71-6.37-15.03-14.86-20.14-24.14c-4.58-8.31-8.46-17.01-12.37-25.66
	c-1.08-2.4-2.22-3.4-4.87-3.28c-4.57,0.21-9.16,0.06-14.29,0.06c0,7.3-0.12,14.24,0.11,21.17c0.04,1.2,1.33,2.68,2.44,3.48
	c10.96,7.88,13.64,18.38,13.2,31.68c-1,29.72-0.31,59.51-0.31,89.26c0,1.63,0,3.26,0,4.96c2.18,0.92,4.31,1.62,6.24,2.67
	c11.49,6.25,16.81,16.01,17.4,29.04c0.45,9.9,1.74,19.78,3.13,29.61c0.7,4.92,2.89,8.76,9.26,8.59c4.17-0.11,6.72,3.03,6.89,7.34
	c0.22,5.94,0.18,11.89,0.25,17.84c0.02,1.74,0,3.49,0,5.8c2.29,0,4.03,0,5.76,0c28.12,0,56.24,0,84.36,0c1.49,0,2.98-0.06,4.46,0.08
	c4.6,0.43,7.62,3.56,7.61,7.77c-0.01,4.31-3.34,7.54-8.09,7.78c-1.19,0.06-2.38,0.01-3.57,0.01c-115.16,0-230.32,0-345.49,0
	c-0.6,0-1.19,0-1.79,0c-6.14-0.04-9.83-3.02-9.79-7.88c0.04-4.9,3.6-7.75,9.92-7.75c39.13-0.02,78.26-0.01,117.39-0.01
	c1.91,0,3.83,0,6.44,0c0-7.04,0-13.67,0-20.3c0-8.55,1.23-9.71,9.72-11.13c1.69-0.28,3.98-2.43,4.37-4.1
	c1.91-8.06,3.5-16.21,4.73-24.41c0.88-5.85,0.35-11.96,1.58-17.71c2.23-10.44,8.86-17.74,18.79-21.6c3.14-1.22,3.72-2.84,3.72-5.82
	c-0.09-33.92,0.02-67.85-0.14-101.77c-0.02-4.85,0.93-8.93,4.91-11.73c9.2-6.46,12.42-15.2,10.7-26.1
	C192.08,137.67,192.35,135.56,192.35,132.9z M163.64,352.78c24.45,0,48.32,0,72.82,0c-4.54-13.55-4.68-27.19-5.25-40.84
	c-0.32-7.67-7.09-13.15-14.86-13.24c-10.7-0.13-21.4-0.13-32.1,0c-8.5,0.1-15.07,6.44-15.18,14.92
	C168.9,326.74,167.76,339.7,163.64,352.78z M284.59,54.85c3.02,15.84,5.95,31.21,8.88,46.58c10.96,0,21.64,0,32.34,0
	c2.99-15.56,5.95-30.96,8.95-46.58C318.04,54.85,301.29,54.85,284.59,54.85z M107.04,101.44c2.99-15.7,5.92-31.11,8.87-46.57
	c-16.72,0-33.46,0-50.18,0c3.01,15.63,5.98,31.02,8.98,46.57C85.41,101.44,96.09,101.44,107.04,101.44z M208.13,282.62
	c0-2.32,0-4.1,0-5.87c0-30.77-0.3-61.55,0.22-92.31c0.12-7.31-3.34-11.03-8.02-14.63c-6.35,3.94-8.24,9.22-8.14,16.54
	c0.45,30.32,0.19,60.65,0.19,90.98c0,1.72,0,3.44,0,5.3C197.88,282.62,202.72,282.62,208.13,282.62z M149.77,383.95
	c33.86,0,67.47,0,101.09,0c0-5.22,0-10.05,0-14.97c-33.8,0-67.34,0-101.09,0C149.77,374.05,149.77,378.87,149.77,383.95z
	 M191.97,116.89c0-13.17,0-25.83,0-38.36c-5.19,0-9.99,0-14.69,0c0,13.05,0,25.71,0,38.36
	C182.37,116.89,187.08,116.89,191.97,116.89z M223.22,116.88c0-13.16,0-25.82,0-38.35c-5.19,0-9.99,0-14.69,0
	c0,13.05,0,25.71,0,38.55c4.37,0,8.37,0.01,12.37-0.01C221.62,117.07,222.33,116.96,223.22,116.88z M75.58,117.3
	c0.23,8.9,7.03,15.61,15.39,15.53c8.46-0.08,15.19-6.9,15.16-15.53C96.05,117.3,85.97,117.3,75.58,117.3z M294.3,117.29
	c0.34,9.02,7.13,15.66,15.47,15.54c8.49-0.13,15.26-7.04,15.05-15.54C314.74,117.29,304.66,117.29,294.3,117.29z M191.99,62.27
	c0-10.31,0-20.13,0-30.66c-4.93,3.7-9.31,6.93-13.59,10.28c-0.71,0.56-1.39,1.66-1.41,2.52c-0.12,5.88-0.06,11.76-0.06,17.85
	C182.21,62.27,187.03,62.27,191.99,62.27z M208.45,31.58c0,10.84,0,20.7,0,30.65c5.11,0,9.92,0,15.15,0
	c0-5.98,0.05-11.73-0.05-17.47c-0.02-0.91-0.48-2.13-1.15-2.66C218.01,38.66,213.51,35.37,208.45,31.58z M90.88,25.63
	c-5.36,4.3-10.56,8.47-16.41,13.16c11.38,0,21.61,0,32.82,0C101.48,34.12,96.43,30.07,90.88,25.63z M326.23,38.94
	c-6.18-4.95-11.34-9.08-16.62-13.3c-5.41,4.34-10.59,8.5-16.58,13.3C304.59,38.94,314.76,38.94,326.23,38.94z"/>
<path d="M400.2,392.28c-0.08,3.91-3.84,7.63-7.74,7.65c-4.16,0.02-7.88-3.89-7.68-8.08c0.19-4.11,3.81-7.5,7.87-7.37
	C396.62,384.59,400.29,388.39,400.2,392.28z"/>
</svg>
